<svg xmlns="http://www.w3.org/2000/svg" viewBox="0 0 200 420" width="200" height="420"><defs><filter id="soft" x="-30%" y="-30%" width="160%" height="160%"><feGaussianBlur stdDeviation="3.2"/></filter></defs><g transform="translate(100 128) scale(0.85) translate(-106 -140)"><g transform="translate(6 0)"><path d="M104 133.5 C102 143.5 108 153.5 113 160.5 C119 152.5 121 142.5 119 132.5 C115 135.5 108 135.5 104 133.5 Z" fill="#5a3d2b" stroke="#262626" stroke-width="1.8" stroke-linejoin="round" stroke-linecap="round"/><path d="M111 112 C103 109 98 106.5 90 111.5 C86 117.5 86 125.5 89 133.5 C93 125.5 95 119.5 100 114.5 C108 111.5 105 116 111 115 Z" fill="#5a3d2b" stroke="#262626" stroke-width="1.8" stroke-linejoin="round" stroke-linecap="round"/><path d="M105 113 C99 113 96 110.5 91 117.5" fill="none" stroke="#262626" stroke-opacity="0.45" stroke-width="1.1" stroke-linecap="round" stroke-linejoin="round"/><path d="M111 112 C119 109 124 108.5 132 113.5 C136 119.5 136 127.5 133 135.5 C129 127.5 127 121.5 122 116.5 C114 113.5 117 116 111 115 Z" fill="#5a3d2b" stroke="#262626" stroke-width="1.8" stroke-linejoin="round" stroke-linecap="round"/><path d="M117 113 C123 113 126 112.5 131 119.5" fill="none" stroke="#262626" stroke-opacity="0.45" stroke-width="1.1" stroke-linecap="round" stroke-linejoin="round"/></g></g></svg>
