<svg xmlns="http://www.w3.org/2000/svg" viewBox="0 0 200 420" width="200" height="420"><defs><filter id="soft" x="-30%" y="-30%" width="160%" height="160%"><feGaussianBlur stdDeviation="3.2"/></filter></defs><g transform="translate(100 128) scale(0.85) translate(-106 -140)"><g transform="translate(6 0)"><g transform="rotate(-15 127 87)"><path d="M117.172 92.301 C113.662 85.29 118.576 78.45 127 78.45 C135.424 78.45 140.338 85.29 136.828 92.301 C131.68 91.275 122.32 91.275 117.172 92.301 Z" fill="#ffffff" stroke="none"/><clipPath id="c1"><path d="M117.172 92.301 C113.662 85.29 118.576 78.45 127 78.45 C135.424 78.45 140.338 85.29 136.828 92.301 C131.68 91.275 122.32 91.275 117.172 92.301 Z"/></clipPath><g clip-path="url(#c1)"><circle cx="129.34" cy="86.829" r="2.6" fill="#262626" stroke="none"/></g><path d="M117.172 92.301 C113.662 85.29 118.576 78.45 127 78.45 C135.424 78.45 140.338 85.29 136.828 92.301 C131.68 91.275 122.32 91.275 117.172 92.301 Z" fill="none" stroke="#262626" stroke-width="2.6" stroke-linejoin="round" stroke-linecap="round"/><path d="M138.232 88.026 l4.5 -2 M137.413 84.1785 l4 -3" fill="none" stroke="#262626" stroke-width="1.8" stroke-linecap="round" stroke-linejoin="round"/></g><g transform="rotate(15 82 88)"><path d="M69.904 93.58 C65.584 86.2 71.632 79 82 79 C92.368 79 98.416 86.2 94.096 93.58 C87.76 92.5 76.24 92.5 69.904 93.58 Z" fill="#ffffff" stroke="none"/><clipPath id="c2"><path d="M69.904 93.58 C65.584 86.2 71.632 79 82 79 C92.368 79 98.416 86.2 94.096 93.58 C87.76 92.5 76.24 92.5 69.904 93.58 Z"/></clipPath><g clip-path="url(#c2)"><circle cx="84.88" cy="87.82" r="2.6" fill="#262626" stroke="none"/></g><path d="M69.904 93.58 C65.584 86.2 71.632 79 82 79 C92.368 79 98.416 86.2 94.096 93.58 C87.76 92.5 76.24 92.5 69.904 93.58 Z" fill="none" stroke="#262626" stroke-width="2.6" stroke-linejoin="round" stroke-linecap="round"/><path d="M68.176 89.08 l-4.5 -2 M69.184 85.03 l-4 -3 M71.63199999999999 81.88 l-2.6 -3.4" fill="none" stroke="#262626" stroke-width="1.8" stroke-linecap="round" stroke-linejoin="round"/></g><circle cx="82" cy="88" r="18.4" fill="none" stroke="#262626" stroke-width="2.4"/><circle cx="127" cy="87" r="14.700000000000001" fill="none" stroke="#262626" stroke-width="2.4"/><path d="M100.4 86 Q104.5 81 112.3 85" fill="none" stroke="#262626" stroke-width="2.4" stroke-linecap="round" stroke-linejoin="round"/></g></g></svg>
