<svg xmlns="http://www.w3.org/2000/svg" viewBox="0 0 200 420" width="200" height="420"><defs><filter id="soft" x="-30%" y="-30%" width="160%" height="160%"><feGaussianBlur stdDeviation="3.2"/></filter></defs><g transform="translate(100 128) scale(0.85) translate(-106 -140)"><g transform="translate(6 0)"><path d="M114 88 a13 13 0 1 0 26 0 a13 13 0 1 0 -26 0 Z" fill="#ffffff" stroke="none"/><clipPath id="c1"><path d="M114 88 a13 13 0 1 0 26 0 a13 13 0 1 0 -26 0 Z"/></clipPath><g clip-path="url(#c1)"><circle cx="129.34" cy="88" r="2.3" fill="#262626" stroke="none"/></g><path d="M114 88 a13 13 0 1 0 26 0 a13 13 0 1 0 -26 0 Z" fill="none" stroke="#262626" stroke-width="3.1" stroke-linejoin="round" stroke-linecap="round"/><path d="M66.5 89 a14.5 14.5 0 1 0 29 0 a14.5 14.5 0 1 0 -29 0 Z" fill="#ffffff" stroke="none"/><clipPath id="c2"><path d="M66.5 89 a14.5 14.5 0 1 0 29 0 a14.5 14.5 0 1 0 -29 0 Z"/></clipPath><g clip-path="url(#c2)"><circle cx="83.61" cy="89" r="2.3" fill="#262626" stroke="none"/></g><path d="M66.5 89 a14.5 14.5 0 1 0 29 0 a14.5 14.5 0 1 0 -29 0 Z" fill="none" stroke="#262626" stroke-width="3.1" stroke-linejoin="round" stroke-linecap="round"/></g></g></svg>
