<svg xmlns="http://www.w3.org/2000/svg" viewBox="0 0 200 420" width="200" height="420"><defs><filter id="soft" x="-30%" y="-30%" width="160%" height="160%"><feGaussianBlur stdDeviation="3.2"/></filter></defs><path d="M106 400 C104 410 110 414 120 414 L142 414 C152 414 152 404 144 402 C136 398 128 396 118 396 Z" fill="#1e1e24" stroke="#262626" stroke-width="2.4" stroke-linejoin="round" stroke-linecap="round"/><path d="M106 400 C104 410 110 414 120 414 L142 414 C152 414 152 404 144 402 C136 398 128 396 118 396 Z" fill="none" stroke="#262626" stroke-width="2.4" stroke-linejoin="round" stroke-linecap="round"/><path d="M112 386 L112 400 L132 400 L132 386 Z" fill="#ffffff" stroke="#262626" stroke-width="2.4" stroke-linejoin="round" stroke-linecap="round"/><path d="M58 404 C56 414 64 419 74 419 L102 419 C113 419 113 408 104 405 C94 400 84 398 72 398 Z" fill="#1e1e24" stroke="#262626" stroke-width="2.4" stroke-linejoin="round" stroke-linecap="round"/><path d="M58 404 C56 414 64 419 74 419 L102 419 C113 419 113 408 104 405 C94 400 84 398 72 398 Z" fill="none" stroke="#262626" stroke-width="2.4" stroke-linejoin="round" stroke-linecap="round"/><path d="M68 388 L68 403 L90 403 L90 388 Z" fill="#ffffff" stroke="#262626" stroke-width="2.4" stroke-linejoin="round" stroke-linecap="round"/><path d="M66 410 L100 410" fill="none" stroke="#55555f" stroke-width="1.2" stroke-linecap="round" stroke-linejoin="round"/></svg>
